<?xml version="1.0" encoding="utf-8"?>
<!-- Svg Vector Icons : http://www.onlinewebfonts.com/icon -->
<!DOCTYPE svg PUBLIC "-//W3C//DTD SVG 1.1//EN" "http://www.w3.org/Graphics/SVG/1.1/DTD/svg11.dtd">
<svg version="1.1" xmlns="http://www.w3.org/2000/svg" xmlns:xlink="http://www.w3.org/1999/xlink" x="0px" y="0px" viewBox="0 0 256 256" enable-background="new 0 0 256 256" xml:space="preserve">
<metadata> Svg Vector Icons : http://www.onlinewebfonts.com/icon </metadata>
<g><g><g><g><g><path fill="#000000" d="M62.7,70.7c-14.9-2.3-26.5-4.9-34-6.8c-11,17-17.7,36.9-18.7,58.3h49.4C59.2,103.3,60.6,85.9,62.7,70.7z"/></g><g><path fill="#000000" d="M59.8,133.3H10c0.9,20.4,7,39.5,17,56c12.9-3.5,25.7-6.2,38.3-8.1C62.2,164.5,60.4,148.4,59.8,133.3z"/></g><g><path fill="#000000" d="M78.6,190.5c3.8,16.5,9.2,33.6,16.5,51c8.7,2.5,17.9,4,27.4,4.5v-58C108.5,188,93.8,188.8,78.6,190.5z"/></g><g><path fill="#000000" d="M33.6,198.9c12.3,16.4,28.7,29.5,47.8,37.7C75.5,221.5,71,206.5,67.7,192C56.4,193.7,45,195.9,33.6,198.9z"/></g><g><path fill="#000000" d="M195.7,122.3H246c-1-21.4-7.7-41.4-18.7-58.4c-11.7,3.1-23.3,5.5-34.7,7.4C194.6,86.3,195.9,103.5,195.7,122.3z"/></g><g><path fill="#000000" d="M72.9,23.4c-14.4,7.6-27,18.1-37.2,30.8c7.1,1.6,16.8,3.6,28.7,5.4C67,44.7,70.2,32.4,72.9,23.4z"/></g><g><path fill="#000000" d="M220.4,54.3C210,41.4,197,30.6,182.2,23c2.7,9.2,6,21.9,8.7,37.4C200.6,58.8,210.4,56.8,220.4,54.3z"/></g><g><path fill="#000000" d="M122.5,64.7V10c-12.7,0.6-24.9,3.2-36.2,7.4c-2.8,8.1-7.4,23.3-11,43.7C89.2,63,105.1,64.4,122.5,64.7z"/></g><g><path fill="#000000" d="M179.9,61.9c-3.6-21.1-8.4-36.7-11.2-44.8c-11.1-4.1-22.9-6.5-35.2-7.1v54.8C148.3,64.7,163.9,63.9,179.9,61.9z"/></g><g><path fill="#000000" d="M133.5,176.8c16.6,0.3,31.8,1.6,45.2,3.3c3.2-16.3,5-32,5.6-46.8h-50.9V176.8z"/></g><g><path fill="#000000" d="M70.4,122.3h52.1V75.9c-18.1-0.4-34.6-1.8-48.9-3.7C71.5,87,70.2,103.8,70.4,122.3z"/></g><g><path fill="#000000" d="M133.5,76v46.3h51.2c0.2-18.2-1.1-34.8-3.1-49.4C165,75,148.8,75.9,133.5,76z"/></g><g><path fill="#000000" d="M195.4,133.3c-0.7,15.3-2.5,31.5-5.7,48.3c17.9,2.6,31.5,5.8,39.3,7.8c10-16.5,16.1-35.6,17-56H195.4z"/></g><g><path fill="#000000" d="M76.3,179.7c16-2,31.5-2.8,46.2-2.9v-43.5H70.7C71.4,147.9,73.1,163.5,76.3,179.7z"/></g><g><path fill="#000000" d="M133.5,188v58c9.1-0.4,17.9-1.9,26.4-4.2c7.3-17.3,12.6-34.2,16.5-50.7C163.6,189.6,149.1,188.4,133.5,188z"/></g><g><path fill="#000000" d="M173.7,237.1c19.4-8.2,36.1-21.4,48.6-38c-7.9-1.9-19.9-4.4-34.9-6.5C184,207,179.5,221.9,173.7,237.1z"/></g></g></g><g></g><g></g><g></g><g></g><g></g><g></g><g></g><g></g><g></g><g></g><g></g><g></g><g></g><g></g><g></g></g></g>
</svg>